<svg width="50" height="50" viewBox="0 0 50 50" fill="none" xmlns="http://www.w3.org/2000/svg">
<path d="M13.3199 14.4829H7.44629C7.29089 14.4829 7.14185 14.5446 7.03197 14.6545C6.92208 14.7644 6.86035 14.9134 6.86035 15.0688C6.86035 15.2242 6.92208 15.3733 7.03197 15.4832C7.14185 15.5931 7.29089 15.6548 7.44629 15.6548H13.3199C13.4753 15.6548 13.6244 15.5931 13.7342 15.4832C13.8441 15.3733 13.9059 15.2242 13.9059 15.0688C13.9059 14.9134 13.8441 14.7644 13.7342 14.6545C13.6244 14.5446 13.4753 14.4829 13.3199 14.4829Z" fill="#FEFFFE"/>
<path d="M10.3794 16.3291H7.44629C7.29089 16.3291 7.14185 16.3908 7.03197 16.5007C6.92208 16.6106 6.86035 16.7596 6.86035 16.915C6.86035 17.0704 6.92208 17.2195 7.03197 17.3294C7.14185 17.4392 7.29089 17.501 7.44629 17.501H10.3794C10.5348 17.501 10.6838 17.4392 10.7937 17.3294C10.9036 17.2195 10.9654 17.0704 10.9654 16.915C10.9654 16.7596 10.9036 16.6106 10.7937 16.5007C10.6838 16.3908 10.5348 16.3291 10.3794 16.3291Z" fill="#FEFFFE"/>
<path d="M42.0121 15.6979H40.2742L39.8991 14.8487C39.8233 14.677 39.7006 14.5303 39.5451 14.4252C39.3896 14.3201 39.2077 14.2609 39.0201 14.2545C38.8325 14.2481 38.647 14.2947 38.4847 14.389C38.3224 14.4832 38.19 14.6213 38.1026 14.7874L37.6237 15.6979H36.0952L35.4684 13.6482C35.403 13.434 35.2673 13.2481 35.0834 13.1203C34.8995 12.9925 34.6779 12.9303 34.4543 12.9437C34.2308 12.957 34.0182 13.0452 33.8508 13.194C33.6834 13.3427 33.5709 13.5435 33.5313 13.7639L32.7452 18.1486C32.7396 18.1802 32.7315 18.2048 32.6777 18.204C32.6202 18.2028 32.6168 18.1776 32.6124 18.1459L32.0478 14.0278C32.0167 13.8013 31.9088 13.5923 31.7421 13.4358C31.5755 13.2793 31.3601 13.1847 31.1321 13.1679C30.904 13.1512 30.6771 13.2132 30.4894 13.3437C30.3016 13.4741 30.1643 13.6651 30.1004 13.8846L29.589 15.6423H27.9487C27.7933 15.6423 27.6443 15.704 27.5344 15.8139C27.4245 15.9238 27.3628 16.0728 27.3628 16.2282C27.3628 16.3836 27.4245 16.5326 27.5344 16.6425C27.6443 16.7524 27.7933 16.8141 27.9487 16.8141H29.7195C29.9354 16.8133 30.1453 16.7429 30.3179 16.6132C30.4906 16.4836 30.6168 16.3018 30.6779 16.0947L30.9976 14.9956L31.4514 18.3051C31.4874 18.5992 31.6293 18.8701 31.8506 19.0671C32.0718 19.2642 32.3573 19.3738 32.6536 19.3756C32.6628 19.3758 32.6721 19.3759 32.6813 19.3759C32.9728 19.3797 33.256 19.2787 33.4794 19.0915C33.7027 18.9042 33.8516 18.6431 33.8988 18.3554L34.5581 14.6782L35.0122 16.1635C35.0739 16.3683 35.2002 16.5478 35.3722 16.675C35.5442 16.8023 35.7528 16.8706 35.9667 16.8697H37.7285C37.9105 16.87 38.089 16.8204 38.2448 16.7264C38.4005 16.6323 38.5275 16.4974 38.612 16.3363L38.9724 15.6511L39.248 16.275C39.3262 16.4519 39.4541 16.6023 39.6162 16.7079C39.7783 16.8134 39.9675 16.8697 40.1609 16.8698H42.012C42.1674 16.8698 42.3164 16.808 42.4263 16.6981C42.5362 16.5883 42.598 16.4392 42.598 16.2838C42.598 16.1284 42.5362 15.9794 42.4263 15.8695C42.3164 15.7596 42.1675 15.6979 42.0121 15.6979Z" fill="#FEFFFE"/>
<path d="M30.4326 26.7202H32.2652C32.3847 26.7202 32.4993 26.7677 32.5838 26.8522C32.6683 26.9367 32.7158 27.0513 32.7158 27.1708V32.5904C32.7158 32.7099 32.6683 32.8245 32.5838 32.909C32.4993 32.9935 32.3847 33.041 32.2652 33.041H30.4326C30.313 33.041 30.1984 32.9935 30.1139 32.909C30.0294 32.8245 29.9819 32.7099 29.9819 32.5904V27.1708C29.9819 27.0513 30.0294 26.9367 30.1139 26.8522C30.1984 26.7677 30.313 26.7202 30.4326 26.7202Z" fill="#FEFFFE"/>
<path d="M34.2046 29.209H36.0372C36.0964 29.209 36.155 29.2206 36.2097 29.2433C36.2643 29.2659 36.314 29.2991 36.3559 29.341C36.3977 29.3828 36.4309 29.4325 36.4535 29.4872C36.4762 29.5419 36.4879 29.6005 36.4879 29.6596V32.5903C36.4879 32.7098 36.4404 32.8244 36.3559 32.9089C36.2714 32.9934 36.1567 33.0409 36.0372 33.0409H34.2045C34.085 33.0409 33.9704 32.9934 33.8859 32.9089C33.8014 32.8244 33.7539 32.7098 33.7539 32.5903V29.6596C33.7539 29.6005 33.7656 29.5419 33.7882 29.4872C33.8108 29.4325 33.844 29.3828 33.8859 29.341C33.9277 29.2991 33.9774 29.2659 34.0321 29.2433C34.0868 29.2206 34.1454 29.209 34.2046 29.209Z" fill="#FEFFFE"/>
<path d="M37.9765 25.2002H39.8091C39.9286 25.2002 40.0433 25.2477 40.1278 25.3322C40.2123 25.4167 40.2598 25.5313 40.2598 25.6509V32.5905C40.2598 32.71 40.2123 32.8247 40.1278 32.9092C40.0433 32.9937 39.9287 33.0411 39.8092 33.0411H37.9765C37.9174 33.0411 37.8588 33.0295 37.8041 33.0068C37.7494 32.9842 37.6997 32.951 37.6579 32.9092C37.616 32.8673 37.5828 32.8176 37.5602 32.7629C37.5375 32.7083 37.5259 32.6497 37.5259 32.5905V25.6508C37.5259 25.5917 37.5375 25.5331 37.5602 25.4784C37.5828 25.4237 37.616 25.374 37.6579 25.3322C37.6997 25.2903 37.7494 25.2571 37.8041 25.2345C37.8587 25.2119 37.9173 25.2002 37.9765 25.2002Z" fill="#FEFFFE"/>
<path d="M44.0515 3.72266H25.9089C25.5084 3.72265 25.1118 3.80155 24.7417 3.95483C24.3717 4.10811 24.0354 4.33277 23.7522 4.616C23.469 4.89922 23.2443 5.23546 23.091 5.60551C22.9377 5.97556 22.8589 6.37218 22.8589 6.77272V15.5731H16.2609V14.077C16.2603 13.564 16.0563 13.0722 15.6935 12.7095C15.3308 12.3468 14.839 12.1427 14.326 12.1421H6.43262C5.91962 12.1427 5.42781 12.3468 5.06506 12.7095C4.70232 13.0722 4.49828 13.564 4.4977 14.077V18.2411C4.49829 18.7541 4.70233 19.2459 5.06507 19.6086C5.42781 19.9714 5.91963 20.1754 6.43262 20.176H14.326C14.839 20.1754 15.3308 19.9714 15.6935 19.6086C16.0563 19.2459 16.2603 18.7541 16.2609 18.2411V16.745H22.8588V25.7605H18.4994C17.5953 25.7615 16.7284 26.1212 16.0891 26.7605C15.4497 27.3998 15.0901 28.2667 15.089 29.1709V30.6035C15.089 30.7589 15.1508 30.9079 15.2607 31.0178C15.3705 31.1277 15.5196 31.1894 15.675 31.1894C15.8304 31.1894 15.9794 31.1277 16.0893 31.0178C16.1992 30.9079 16.2609 30.7589 16.2609 30.6035V29.1709C16.2616 28.5774 16.4977 28.0084 16.9173 27.5888C17.337 27.1691 17.9059 26.9331 18.4994 26.9324H22.8589V34.2897C22.8589 34.0548 22.7655 33.8296 22.5995 33.6635C22.4334 33.4974 22.2081 33.4041 21.9733 33.4042H12.0332C11.8115 33.4042 11.5978 33.4875 11.4346 33.6375C11.2713 33.7875 11.1702 33.9933 11.1514 34.2143V34.1302C11.1508 33.5557 10.9223 33.0049 10.5161 32.5987C10.1099 32.1925 9.55916 31.964 8.98469 31.9633H7.04245V28.5517C7.04207 28.2252 6.91218 27.9121 6.68128 27.6812C6.45038 27.4503 6.13732 27.3204 5.81078 27.3201H4.13012C3.80357 27.3204 3.49051 27.4503 3.25961 27.6812C3.02871 27.9121 2.89882 28.2252 2.89844 28.5517V45.046C2.89882 45.3726 3.0287 45.6856 3.2596 45.9165C3.49051 46.1474 3.80356 46.2773 4.13011 46.2777H5.81077C6.13731 46.2773 6.45037 46.1474 6.68127 45.9165C6.91217 45.6856 7.04206 45.3726 7.04244 45.046V42.9032H11.1476V43.1812C11.1476 43.2975 11.1705 43.4127 11.2151 43.5201C11.2596 43.6276 11.3248 43.7252 11.407 43.8074C11.4893 43.8896 11.5869 43.9549 11.6943 43.9994C11.8018 44.0439 11.9169 44.0668 12.0332 44.0668H21.6908V45.0455C21.6912 45.3721 21.8211 45.6851 22.052 45.916C22.2829 46.1469 22.5959 46.2768 22.9225 46.2772H24.8966C25.1065 46.2769 25.3128 46.223 25.496 46.1205C25.6791 46.0181 25.8331 45.8705 25.9431 45.6917H44.0515C44.8604 45.6917 45.6362 45.3704 46.2082 44.7984C46.7802 44.2264 47.1016 43.4506 47.1016 42.6417V6.77272C47.1016 6.37218 47.0227 5.97557 46.8694 5.60551C46.7161 5.23546 46.4914 4.89923 46.2082 4.616C45.925 4.33278 45.5888 4.10811 45.2187 3.95483C44.8487 3.80155 44.452 3.72266 44.0515 3.72266ZM15.089 18.2411C15.0888 18.4434 15.0083 18.6373 14.8653 18.7804C14.7222 18.9234 14.5283 19.0039 14.326 19.0041H6.43262C6.23032 19.0039 6.03636 18.9234 5.89331 18.7804C5.75026 18.6373 5.6698 18.4434 5.66958 18.2411V14.077C5.6698 13.8747 5.75027 13.6808 5.89331 13.5377C6.03636 13.3947 6.23032 13.3142 6.43262 13.314H14.326C14.5283 13.3142 14.7222 13.3947 14.8653 13.5377C15.0083 13.6808 15.0888 13.8747 15.089 14.077L15.089 18.2411ZM5.87058 45.046C5.87057 45.0619 5.86427 45.0771 5.85305 45.0883C5.84184 45.0995 5.82664 45.1058 5.81078 45.1058H4.13012C4.11426 45.1058 4.09906 45.0995 4.08784 45.0883C4.07663 45.0771 4.07033 45.0619 4.07032 45.046V28.5517C4.07033 28.5359 4.07664 28.5207 4.08785 28.5095C4.09906 28.4982 4.11426 28.4919 4.13012 28.4919H5.81078C5.82664 28.4919 5.84184 28.4982 5.85305 28.5095C5.86426 28.5207 5.87057 28.5359 5.87058 28.5517V45.046ZM7.04245 33.1225C7.04837 33.1268 7.05452 33.1308 7.06034 33.1352H8.98471C9.24848 33.1355 9.50136 33.2404 9.68787 33.427C9.87437 33.6135 9.97928 33.8664 9.97958 34.1302V34.5678H7.04245V33.1225ZM11.1476 41.7313H7.04245V39.3214H11.1476V41.7313ZM11.1476 38.1495H7.04245V35.7397H11.1476V38.1495ZM36.7787 5.24772H37.8812C38.0366 5.24772 38.1857 5.30946 38.2956 5.41934C38.4054 5.52923 38.4672 5.67826 38.4672 5.83366C38.4672 5.98906 38.4054 6.1381 38.2956 6.24798C38.1857 6.35787 38.0366 6.4196 37.8812 6.4196H36.7787C36.6233 6.4196 36.4743 6.35787 36.3644 6.24798C36.2545 6.1381 36.1928 5.98906 36.1928 5.83366C36.1928 5.67826 36.2545 5.52923 36.3644 5.41934C36.4743 5.30946 36.6233 5.24772 36.7787 5.24772ZM32.0791 5.24772H34.8355C34.9909 5.24772 35.1399 5.30946 35.2498 5.41934C35.3597 5.52923 35.4214 5.67826 35.4214 5.83366C35.4214 5.98906 35.3597 6.1381 35.2498 6.24798C35.1399 6.35787 34.9909 6.4196 34.8355 6.4196H32.0791C31.9237 6.4196 31.7747 6.35787 31.6648 6.24798C31.5549 6.1381 31.4932 5.98906 31.4932 5.83366C31.4932 5.67826 31.5549 5.52923 31.6648 5.41934C31.7747 5.30946 31.9237 5.24772 32.0791 5.24772ZM24.9564 45.0456C24.9564 45.0614 24.9501 45.0766 24.9388 45.0879C24.9276 45.0991 24.9124 45.1054 24.8966 45.1054H22.9225C22.9066 45.1054 22.8914 45.0991 22.8802 45.0879C22.869 45.0766 22.8627 45.0614 22.8627 45.0456V35.7397H24.8966C24.9124 35.7399 24.9275 35.7463 24.9386 35.7574C24.9498 35.7686 24.9562 35.7837 24.9564 35.7995V45.0456ZM45.5012 42.213C45.5012 42.6779 45.3165 43.1238 44.9877 43.4525C44.659 43.7812 44.2132 43.9659 43.7483 43.966H26.2122C26.1838 43.966 26.1562 43.9631 26.1282 43.9618V35.7995C26.1279 35.4729 25.998 35.1599 25.7671 34.929C25.5362 34.6981 25.2231 34.5682 24.8966 34.5678H24.4592V26.9324H27.2695C27.2864 26.9324 27.3031 26.9313 27.3198 26.9299V33.4297C27.3198 33.7083 27.3746 33.9841 27.4813 34.2415C27.5879 34.4989 27.7441 34.7328 27.9411 34.9298C28.1381 35.1268 28.372 35.2831 28.6294 35.3897C28.8868 35.4963 29.1627 35.5512 29.4413 35.5512H40.8003C41.0789 35.5512 41.3548 35.4963 41.6121 35.3897C41.8695 35.2831 42.1034 35.1268 42.3004 34.9298C42.4974 34.7328 42.6537 34.4989 42.7603 34.2415C42.8669 33.9841 42.9218 33.7083 42.9218 33.4297V23.903C42.9218 23.6244 42.8669 23.3485 42.7603 23.0911C42.6537 22.8337 42.4974 22.5998 42.3004 22.4028C42.1034 22.2058 41.8695 22.0496 41.6121 21.943C41.3548 21.8363 41.0789 21.7815 40.8003 21.7815H29.4413C29.1627 21.7815 28.8868 21.8363 28.6294 21.943C28.372 22.0496 28.1381 22.2058 27.9411 22.4028C27.7441 22.5998 27.5879 22.8337 27.4812 23.0911C27.3746 23.3485 27.3198 23.6244 27.3198 23.903V25.7631C27.3032 25.7616 27.2864 25.7605 27.2695 25.7605H24.4592V16.745H25.6075C25.7629 16.745 25.912 16.6833 26.0219 16.5734C26.1317 16.4635 26.1935 16.3145 26.1935 16.1591C26.1935 16.0037 26.1317 15.8546 26.0219 15.7448C25.912 15.6349 25.7629 15.5731 25.6075 15.5731H24.4592V9.61276C24.4592 9.14786 24.6439 8.70201 24.9727 8.37327C25.3014 8.04454 25.7472 7.85985 26.2122 7.85983H43.7482C44.2131 7.85985 44.659 8.04454 44.9877 8.37327C45.3165 8.70201 45.5011 9.14786 45.5012 9.61276L45.5012 42.213ZM28.4916 33.4297V23.903C28.4919 23.6512 28.5921 23.4098 28.7701 23.2318C28.9481 23.0538 29.1895 22.9536 29.4413 22.9533H40.8003C41.0521 22.9536 41.2934 23.0538 41.4715 23.2318C41.6495 23.4098 41.7496 23.6512 41.7499 23.903V33.4297C41.7496 33.6814 41.6495 33.9228 41.4715 34.1008C41.2934 34.2789 41.0521 34.379 40.8003 34.3793H29.4413C29.1895 34.379 28.9481 34.2789 28.7701 34.1008C28.5921 33.9228 28.4919 33.6814 28.4916 33.4297Z" fill="#FEFFFE"/>
</svg>
