<svg width="50" height="50" viewBox="0 0 50 50" fill="none" xmlns="http://www.w3.org/2000/svg">
<path d="M28.6688 35.9915L28.6683 35.9904C28.7856 34.8089 28.7469 33.6176 28.5473 32.4458C28.4901 32.0653 28.1824 31.9017 27.9026 31.9489C27.8988 31.9495 27.896 31.9522 27.8923 31.9529C26.8587 31.7656 25.8086 31.6578 24.7588 31.6196C24.67 31.0949 24.5551 30.6186 24.4077 30.1993C24.9994 29.4964 25.6499 28.6924 26.2173 28.0311C26.1239 27.5156 26.0305 27.0002 25.9371 26.4847L25.9361 26.4862C25.9055 26.3304 25.8156 26.1879 25.6651 26.1064C25.6168 26.0803 25.5652 26.0709 25.514 26.0602C24.5212 25.2839 23.4694 24.5612 22.385 23.9148C22.1804 23.7927 21.9319 23.8225 21.7574 23.9645C21.747 23.9709 21.7349 23.9719 21.7248 23.9791C20.9919 24.5044 20.3171 25.1108 19.6993 25.7681L17.938 25.0141C17.7137 23.3576 17.198 22.3997 17.0595 22.0346C17.0688 21.6984 16.8035 21.4579 16.5031 21.4691C15.1366 21.4921 13.7751 21.6881 12.4571 22.0515C12.4248 22.0604 12.4002 22.081 12.371 22.095C12.155 22.152 11.9842 22.3353 11.9613 22.5713C11.8611 23.5967 11.8698 24.6332 11.9746 25.659C10.9942 25.8855 10.1543 26.2137 9.3921 26.6684L7.17042 25.0221C6.927 24.8404 6.58017 24.8914 6.39922 25.137C6.37122 25.1747 6.35883 25.2178 6.34178 25.2594C4.0225 28.3327 4.19053 28.0348 4.12759 28.2253C4.12674 28.2274 4.12548 28.2292 4.12467 28.2313C4.06118 28.4312 4.08924 28.6672 4.25007 28.8257L6.16522 30.7154L5.73057 33.4418L2.38778 33.5713C2.08332 33.5832 1.846 33.8395 1.85785 34.1436C1.86117 34.2299 1.88845 34.3077 1.9266 34.379C1.94348 35.7817 2.15026 37.0673 2.14292 38.2976C2.1411 38.6043 2.42752 38.8781 2.72742 38.8781C2.80146 38.8781 6.09425 38.8009 6.02022 38.7994L7.20399 40.8255C6.84559 41.7431 6.32939 42.6091 5.69032 43.3593C5.3226 43.5344 5.27894 43.9926 5.5397 44.2478L8.26331 46.9122C8.4149 47.0602 8.64688 47.1193 8.87164 47.0196C9.19996 46.954 9.07384 46.9026 11.1739 44.8593C12.2834 45.1161 12.4159 45.115 13.5948 45.3844L14.0895 48.3909C14.0797 48.431 14.0645 48.4688 14.0642 48.5127C14.0612 48.8787 14.4316 49.1287 14.7607 49.0739C14.9319 49.0454 16.5878 49.1277 18.6852 48.4047C18.8544 48.3465 18.9682 48.2116 19.0205 48.0542C19.0839 47.9653 19.1294 47.8626 19.1304 47.7451C19.1389 46.6951 19.1066 45.6366 19.0466 44.5882C19.4217 44.4374 19.7812 44.28 20.1354 44.1203C20.2426 44.0718 20.3517 44.0241 20.4597 43.9759C21.2246 44.5243 22.0296 45.0694 22.7808 45.6189C23.0755 45.5726 23.5461 45.4901 23.8958 45.4326C23.8999 45.4327 23.9039 45.4344 23.9081 45.4344C23.9246 45.4344 23.9393 45.4243 23.9557 45.4228C23.9945 45.4164 24.0401 45.4088 24.0744 45.4034L24.176 45.3828C24.1718 45.3792 24.1672 45.3758 24.163 45.3722C24.2091 45.3483 24.2427 45.3039 24.2811 45.2669C24.289 45.2613 24.2982 45.2595 24.3059 45.2534C25.3786 44.409 26.2608 43.3851 26.7893 42.3697C26.8971 42.1624 26.8581 41.9197 26.7127 41.7536C26.7106 41.7511 26.7102 41.7478 26.7081 41.7454L24.7689 39.4824C24.9343 38.8475 25.1058 38.1981 25.3294 37.5834C26.1904 37.5632 27.1017 37.4556 27.9441 37.3549C28.0754 37.1641 28.2639 36.8139 28.4262 36.537C28.4422 36.5264 28.4529 36.5104 28.4676 36.4983C28.4729 36.4938 28.4774 36.489 28.4825 36.4843C28.6188 36.3634 28.6995 36.1848 28.6688 35.9915ZM23.8584 44.1833L21.61 42.6626C21.4609 42.5184 21.2387 42.4615 21.0329 42.5399C20.5561 42.7205 20.1188 42.9176 19.6815 43.1147C19.2973 43.2885 18.9097 43.4609 18.4962 43.6221C18.4761 43.6212 18.4576 43.6127 18.4371 43.6141C18.1334 43.6346 17.9036 43.8974 17.9237 44.2015C17.996 45.2767 18.0268 46.3681 18.0245 47.4514C17.0841 47.7447 16.1108 47.9078 15.1345 47.9472L14.6092 44.7544C14.5596 44.4535 14.2717 44.2471 13.9755 44.2995C13.9512 44.3035 13.9324 44.3176 13.9095 44.3245C12.7745 44.0615 12.2155 43.977 11.294 43.7571C11.0835 43.6373 10.8153 43.6583 10.6358 43.8378L8.68858 45.7853L6.71032 43.8501C7.40994 42.978 7.9777 41.9857 8.34912 40.9375C8.42536 40.7221 8.35966 40.4909 8.20102 40.3459C6.767 37.9691 6.89497 37.9453 6.59866 37.7978C6.30088 37.5924 6.31268 37.7359 3.22885 37.7629C3.18731 36.5336 3.0769 35.824 3.0382 34.65L5.99675 34.5354C6.07028 34.5644 6.08122 34.5838 6.19565 34.5838C6.46205 34.5838 6.69614 34.3906 6.73958 34.1192L7.26736 30.8086C7.28634 30.6891 7.25672 30.5771 7.20587 30.4769C7.21884 30.3198 7.1719 30.1591 7.05086 30.0399L5.35875 28.3703L6.97443 26.2493C8.99845 27.7047 9.03539 27.8843 9.3623 27.8843C9.4683 27.8843 9.56744 27.8436 9.65778 27.7847C9.66963 27.7782 9.68255 27.7754 9.69404 27.768C10.5209 27.2244 11.4483 26.8664 12.6119 26.6413C12.8074 26.6035 12.95 26.4624 13.015 26.2883C13.2901 25.8756 12.8554 25.5263 13.0337 23.0463C14.0378 22.7901 15.0659 22.6388 16.1008 22.5924C16.5046 23.4692 16.7674 24.3979 16.8761 25.3567C16.8961 25.5334 17.0023 25.6737 17.1435 25.7592C17.3249 26.0468 17.3805 25.9309 19.5821 26.9178C19.6532 26.9479 19.7268 26.9623 19.799 26.9623C19.9416 26.9623 20.0765 26.9025 20.1793 26.8034C20.2314 26.7747 20.2835 26.7447 20.3256 26.698C20.8713 26.0945 21.4835 25.5523 22.1339 25.063C23.0008 25.5951 23.8436 26.1731 24.6481 26.7917C24.2278 27.4995 23.7445 28.1684 23.2048 28.7896C23.1545 28.8055 23.1037 28.8203 23.0579 28.8515C22.8062 29.0228 22.7412 29.366 22.9128 29.6177C23.3279 30.227 23.6018 31.0937 23.7494 32.2677C23.7845 32.5463 24.0219 32.7502 24.2958 32.7502C24.3188 32.7502 24.3421 32.7488 24.3655 32.7459C24.4076 32.7406 24.4429 32.7209 24.4812 32.707C25.4955 32.7321 26.511 32.8384 27.5127 33.0111C27.6314 33.871 27.658 34.7393 27.5918 35.6047L25.0882 36.0034C24.8956 36.034 24.7512 36.1654 24.6784 36.3317C24.6593 36.3583 24.6346 36.3792 24.62 36.4098C24.1956 37.3085 23.9443 38.2728 23.7016 39.2056L23.682 39.2805C23.5461 39.4812 23.5463 39.7509 23.7117 39.9437L25.621 42.1718C25.1998 42.8679 24.5835 43.5726 23.8584 44.1833Z" fill="white"/>
<path d="M18.4991 30.0116C13.6798 26.7001 7.26722 31.6907 9.27738 37.1796C10.2074 39.7215 12.6387 41.3328 15.0714 41.2133C17.6467 41.0967 20.0655 39.2272 20.8227 36.7685C21.5828 34.3006 20.6055 31.4588 18.4991 30.0116ZM19.7686 36.444C19.0612 38.7413 16.5448 40.4955 14.0354 40.0288C12.1796 39.0611 10.9147 36.9534 11.0921 34.8497C11.2971 32.4188 13.4222 30.3698 15.4859 30.0869C16.3201 30.1488 17.1408 30.4169 17.8744 30.9207C19.5938 32.1019 20.3904 34.4248 19.7686 36.444Z" fill="white"/>
<path d="M47.9768 10.0392C47.916 9.75075 47.6421 9.55719 47.3464 9.60912C47.3461 9.60916 47.3467 9.60907 47.3464 9.60912C46.5187 9.4599 45.6775 9.37377 44.8363 9.33957C44.7595 8.90699 44.6594 8.51641 44.5337 8.1699C45.0054 7.60703 45.5167 6.97648 45.9649 6.45409C45.9059 6.12868 45.847 5.80331 45.788 5.47789C45.9006 5.2184 45.8054 4.91273 45.552 4.77513C45.5122 4.75373 45.4697 4.7483 45.428 4.7373C44.605 4.09468 43.7342 3.49618 42.8362 2.96059C42.6494 2.84979 42.42 2.85057 42.186 3.01804C41.5924 3.44335 41.0454 3.93527 40.5397 4.46632L39.1859 3.88667C39.0668 3.04802 38.83 2.23432 38.4695 1.4664C38.4695 1.46474 38.4705 1.46335 38.4704 1.46164C38.4647 1.15718 38.217 0.895451 37.9096 0.919506C36.7686 0.938894 35.6323 1.10261 34.5322 1.40599C34.5051 1.41349 34.4849 1.43144 34.4599 1.44257C34.2424 1.49956 34.0751 1.68249 34.0522 1.91869C33.9713 2.74814 33.9874 3.58391 34.0668 4.41202C33.2972 4.5958 32.6302 4.85695 32.0224 5.21176L30.2303 3.88402C29.9855 3.70307 29.6404 3.75369 29.4591 3.99891C29.436 4.0301 29.4274 4.06609 29.4117 4.10002C27.5724 6.54187 27.5758 6.43229 27.5427 6.68594C27.5096 6.86029 27.5511 7.04586 27.687 7.17992L29.2401 8.71257L28.8995 10.8485L26.2052 10.953C25.8169 10.9681 25.5526 11.3772 25.7334 11.7453C25.7505 12.9068 25.9176 13.9587 25.9123 14.9655C25.9105 15.2686 26.188 15.541 26.491 15.541C26.5651 15.541 29.2414 15.4782 29.1674 15.4772L30.0972 17.0686C29.8047 17.803 29.39 18.4956 28.8785 19.0969C28.521 19.2944 28.5141 19.7288 28.7562 19.9657C31.0448 22.1283 30.9995 22.3321 31.3997 22.3321C31.5103 22.3321 31.7718 22.2604 31.8862 22.1461L33.5236 20.5084C34.4666 20.7239 34.3855 20.6866 35.4177 20.9194L35.8153 23.3364C35.809 23.369 35.7953 23.3988 35.7949 23.4332C35.7918 23.8158 36.1794 24.043 36.4821 23.9926C36.6098 23.9713 38.0023 24.0368 39.7518 23.4336C39.9173 23.3766 40.0301 23.2459 40.0841 23.0926C40.1411 23.0066 40.1828 22.9097 40.1837 22.7988C40.1907 21.9521 40.1647 21.095 40.1176 20.2427C40.5463 20.0677 40.8206 19.9409 41.281 19.7363C41.8888 20.1695 42.522 20.6007 43.1159 21.0351C43.3007 21.0061 43.5706 20.9595 43.8178 20.9177C44.0178 21.0123 44.2094 20.999 44.4071 20.8233C45.0487 20.3842 46.0131 19.364 46.5228 18.3849C46.6303 18.1781 46.592 17.936 46.4476 17.7699C46.3833 17.6959 44.8033 15.8501 44.8679 15.9239C45.0043 15.4 45.1457 14.8655 45.3317 14.3627C46.0161 14.3401 46.7305 14.2636 47.3965 14.1839C47.4843 14.0563 47.6024 13.8445 47.7157 13.6458C47.9206 13.5734 48.0956 13.3674 48.0875 13.1071C48.2221 11.8001 48.0835 10.431 47.9768 10.0392ZM44.0022 19.7265C41.1573 17.9043 42.5954 18.0903 39.5487 19.284C39.1924 19.284 38.976 19.5735 38.9953 19.8659C39.0535 20.7365 39.0781 21.6153 39.0776 22.485C38.3541 22.7056 37.6106 22.8344 36.8565 22.8696L36.4344 20.3032C36.3864 20.014 36.108 19.7758 35.7572 19.8648C34.8107 19.6466 34.4042 19.5874 33.6254 19.4022C33.449 19.3085 33.2407 19.3197 33.0718 19.4311C33.0662 19.4344 33.0614 19.4382 33.0559 19.4417C32.9004 19.5525 32.2835 20.1986 31.4319 21.0406L29.9199 19.5613C30.4814 18.8465 30.9379 18.0384 31.2403 17.1857C31.3118 16.9838 31.2537 16.7715 31.1157 16.6257C29.9653 14.7464 30.0308 14.5767 29.6964 14.4466C29.4005 14.2888 29.3899 14.4054 26.9979 14.4256C26.9568 13.4176 26.8839 12.986 26.8454 12.032L29.1904 11.9411C29.2203 11.9514 29.2463 11.9689 29.2785 11.9741C29.5779 12.0215 29.8617 11.8184 29.9101 11.5163L30.3477 8.7715C30.39 8.5051 30.2287 8.26271 29.9839 8.17506L30.119 8.0301L28.7977 6.72651L30.0304 5.10822L31.6636 6.31824C32.2587 6.75973 32.3332 5.85296 34.7035 5.39446C34.8974 5.35694 35.039 5.21768 35.1048 5.04571C35.1698 4.94154 35.2073 4.81911 35.1903 4.68789C35.0929 3.92899 35.0843 3.15977 35.135 2.39445C35.9158 2.20044 36.7135 2.08281 37.5166 2.04246C38.3172 3.81973 37.9042 4.32823 38.3764 4.63928C38.5553 4.89853 38.596 4.79498 40.4272 5.61778C41.0046 5.864 41.1479 5.20482 42.5855 4.10909C43.2535 4.52184 43.9032 4.96775 44.5269 5.44293C44.1926 5.99705 43.8175 6.52482 43.3928 7.01387C43.3591 7.028 43.3235 7.03496 43.2922 7.05641C43.0405 7.22803 42.9755 7.57126 43.1472 7.82258C43.4832 8.31517 43.7047 9.02031 43.8254 9.9782C43.8631 10.2772 44.1352 10.4941 44.4415 10.4564C44.475 10.4522 44.5026 10.4352 44.5338 10.4254C45.3447 10.4458 46.1552 10.5307 46.9552 10.6654C47.0413 11.3244 47.0617 11.9888 47.0161 12.6514L45.0141 12.9704C44.8259 13.0002 44.6842 13.1267 44.6095 13.2874C44.2908 13.7441 43.9077 15.2336 43.7751 15.7427C43.6497 15.942 43.6548 16.2035 43.816 16.3916L45.3545 18.1868C45.0225 18.7189 44.5525 19.2543 44.0022 19.7265Z" fill="white"/>
<path d="M39.8239 7.72218C35.4705 4.73322 29.6824 9.23601 31.4976 14.1944C32.2932 16.3687 34.3343 17.8411 36.5132 17.8411C38.8809 17.8411 41.209 16.1405 41.9227 13.8243C42.6089 11.5954 41.7264 9.02905 39.8239 7.72218ZM40.8686 13.4997C40.41 14.9878 39.1118 16.1673 37.6104 16.5752C36.1689 16.5076 34.7552 15.741 34.0144 14.4979C32.5985 12.1221 33.8612 8.74438 36.9408 8.38154C37.4543 8.32104 38.0978 8.46937 38.8653 8.43683C40.7297 9.4898 41.4214 11.7039 40.8686 13.4997Z" fill="white"/>
<path d="M43.2706 24.3949C42.9953 24.5141 42.8657 24.8315 42.9788 25.109C43.2476 25.769 43.3894 26.4702 43.4309 27.183C43.3836 27.7208 43.2993 28.2555 43.1572 28.7764C42.8156 30.0273 42.2063 31.2077 41.3627 32.1943C39.7266 34.108 37.2384 35.2514 34.7221 35.2768C34.4527 34.2582 34.5947 34.3268 34.0875 34.2117C33.8639 33.8825 33.4735 33.9033 33.253 34.125C31.7377 35.6551 30.078 37.3119 28.7288 38.9443C28.5084 39.2116 28.5856 39.6139 28.89 39.7801C30.9484 40.9013 32.8616 41.7339 34.9113 42.3999C35.203 42.4934 35.556 42.3475 35.6114 41.9476C35.9804 41.6821 35.94 41.9249 35.6683 40.3841C43.0818 39.1061 47.0012 31.2292 43.9909 24.671C43.8659 24.3989 43.5442 24.2761 43.2706 24.3949ZM34.7483 39.4056C34.5918 39.42 34.4489 39.5008 34.3556 39.6275C34.1514 39.905 34.2846 40.0251 34.4274 41.0708C32.9439 40.5448 31.5128 39.9154 30.0152 39.131C31.0324 37.9516 32.1895 36.7678 33.3327 35.6121C33.421 35.9686 33.5162 36.3169 33.6199 36.6371C33.6957 36.8702 33.9229 37.0349 34.1624 37.0177C38.1857 36.8856 41.9784 34.8474 43.7004 31.3152C42.8043 35.9292 38.8917 39.0177 34.7483 39.4056Z" fill="white"/>
<path d="M9.69288 21.6056C9.97544 21.505 10.1262 21.1974 10.0318 20.9126C9.80818 20.2361 9.71407 19.527 9.72071 18.8129C10.4579 14.1047 14.5431 11.0715 18.9555 11.325C19.1608 12.3859 19.0281 12.2841 19.517 12.4304C19.5809 12.5396 19.6672 12.6333 19.7899 12.6779C20.2325 12.8394 20.4903 12.4003 20.7058 12.2539C22.2431 10.8975 23.8329 9.49512 25.1822 8.06977C25.4204 7.81874 25.3704 7.41139 25.0777 7.22533C23.1005 5.968 21.2479 5.00832 19.2467 4.20517C18.9673 4.09388 18.601 4.2095 18.518 4.60934C18.132 4.84925 18.1887 4.61059 18.3557 6.16507C10.8743 6.94015 6.43071 14.5346 8.99277 21.2814C9.10027 21.5642 9.41255 21.7045 9.69288 21.6056ZM19.2079 7.20343C19.5384 7.19511 19.7853 6.89973 19.7396 6.57513C19.6955 6.26277 19.6642 5.91451 19.6405 5.5641C21.0856 6.18917 22.4708 6.91333 23.9116 7.79726C22.8172 8.90523 21.5825 10.0082 20.3643 11.0838C20.3015 10.7291 20.2301 10.3729 20.1464 10.0419C20.0865 9.80389 19.8761 9.63442 19.6308 9.62581C16.3493 9.51846 13.2753 10.6562 11.1879 12.7637C10.6077 13.3493 10.1201 13.9923 9.73022 14.6723C10.9302 10.146 15.0255 7.31164 19.2079 7.20343Z" fill="white"/>
</svg>
