<svg width="50" height="50" viewBox="0 0 50 50" fill="none" xmlns="http://www.w3.org/2000/svg">
<g clip-path="url(#clip0_9372_21495)">
<path d="M40.625 31.25H31.25C29.5312 31.25 28.125 29.8438 28.125 28.125C28.125 26.4062 29.5312 25 31.25 25H40.625C40.625 25 50 14.5508 50 9.375C50 4.19922 45.8008 0 40.625 0C35.4492 0 31.25 4.19922 31.25 9.375C31.25 11.8652 33.418 15.5664 35.6738 18.75H31.25C26.084 18.75 21.875 22.959 21.875 28.125C21.875 33.291 26.084 37.5 31.25 37.5H40.625C42.3438 37.5 43.75 38.9062 43.75 40.625C43.75 42.3438 42.3438 43.75 40.625 43.75H18.1152C16.5527 46.1719 14.8145 48.4082 13.4961 50H40.625C45.791 50 50 45.791 50 40.625C50 35.459 45.791 31.25 40.625 31.25ZM40.625 6.25C42.3535 6.25 43.75 7.64648 43.75 9.375C43.75 11.1035 42.3535 12.5 40.625 12.5C38.8965 12.5 37.5 11.1035 37.5 9.375C37.5 7.64648 38.8965 6.25 40.625 6.25ZM9.375 25C4.19922 25 0 29.1992 0 34.375C0 39.5508 9.375 50 9.375 50C9.375 50 18.75 39.5508 18.75 34.375C18.75 29.1992 14.5508 25 9.375 25ZM9.375 37.5C7.64648 37.5 6.25 36.1035 6.25 34.375C6.25 32.6465 7.64648 31.25 9.375 31.25C11.1035 31.25 12.5 32.6465 12.5 34.375C12.5 36.1035 11.1035 37.5 9.375 37.5Z" fill="#F8FAFC"/>
</g>
<defs>
<clipPath id="clip0_9372_21495">
<rect width="50" height="50" fill="white"/>
</clipPath>
</defs>
</svg>
