<svg width="423" height="84" viewBox="0 0 423 84" fill="none" xmlns="http://www.w3.org/2000/svg">
<path d="M45.5692 63.869L59.6804 38.9668L73.7917 63.869C77.1119 91.2614 39.7587 85.4509 45.5692 63.869Z" fill="white"/>
<path d="M33.1362 46.0911L40.7666 73.6777L13.18 66.0474C-8.53716 49.0258 21.9842 26.7217 33.1362 46.0911Z" fill="white"/>
<path d="M58.0058 33.8603L29.5133 36.5844L41.8181 10.7418C62.3522 -7.68961 79.0175 26.2412 58.0058 33.8603Z" fill="white"/>
<path d="M113.031 54.7734C113.812 54.7734 114.492 54.625 115.07 54.3281C115.648 54.0312 116.094 53.6172 116.406 53.0859C116.734 52.5391 116.898 51.8828 116.898 51.1172H123.789C123.789 52.9609 123.312 54.5859 122.359 55.9922C121.422 57.3984 120.156 58.5 118.562 59.2969C116.969 60.0781 115.172 60.4688 113.172 60.4688C111.203 60.4688 109.484 60.1484 108.016 59.5078C106.547 58.8516 105.32 57.9375 104.336 56.7656C103.352 55.5938 102.609 54.2344 102.109 52.6875C101.625 51.125 101.383 49.4375 101.383 47.625V47.0156C101.383 45.2188 101.625 43.5391 102.109 41.9766C102.609 40.4141 103.352 39.0469 104.336 37.875C105.32 36.7031 106.539 35.7969 107.992 35.1562C109.461 34.5 111.18 34.1719 113.148 34.1719C115.227 34.1719 117.062 34.5703 118.656 35.3672C120.266 36.1641 121.523 37.3125 122.43 38.8125C123.336 40.2969 123.789 42.0859 123.789 44.1797H116.898C116.898 43.3672 116.75 42.6406 116.453 42C116.172 41.3438 115.734 40.8281 115.141 40.4531C114.562 40.0625 113.844 39.8672 112.984 39.8672C112.094 39.8672 111.359 40.0625 110.781 40.4531C110.219 40.8281 109.789 41.3516 109.492 42.0234C109.195 42.6953 108.992 43.4609 108.883 44.3203C108.773 45.1641 108.719 46.0625 108.719 47.0156V47.625C108.719 48.5938 108.773 49.5156 108.883 50.3906C108.992 51.25 109.195 52.0078 109.492 52.6641C109.805 53.3203 110.242 53.8359 110.805 54.2109C111.367 54.5859 112.109 54.7734 113.031 54.7734ZM126.367 47.5781V47.0859C126.367 45.2266 126.633 43.5156 127.164 41.9531C127.695 40.375 128.477 39.0078 129.508 37.8516C130.539 36.6953 131.805 35.7969 133.305 35.1562C134.805 34.5 136.523 34.1719 138.461 34.1719C140.43 34.1719 142.164 34.5 143.664 35.1562C145.18 35.7969 146.453 36.6953 147.484 37.8516C148.516 39.0078 149.297 40.375 149.828 41.9531C150.359 43.5156 150.625 45.2266 150.625 47.0859V47.5781C150.625 49.4219 150.359 51.1328 149.828 52.7109C149.297 54.2734 148.516 55.6406 147.484 56.8125C146.453 57.9688 145.188 58.8672 143.688 59.5078C142.188 60.1484 140.461 60.4688 138.508 60.4688C136.57 60.4688 134.844 60.1484 133.328 59.5078C131.812 58.8672 130.539 57.9688 129.508 56.8125C128.477 55.6406 127.695 54.2734 127.164 52.7109C126.633 51.1328 126.367 49.4219 126.367 47.5781ZM133.703 47.0859V47.5781C133.703 48.5781 133.781 49.5156 133.938 50.3906C134.109 51.2656 134.383 52.0312 134.758 52.6875C135.133 53.3438 135.625 53.8594 136.234 54.2344C136.859 54.5938 137.617 54.7734 138.508 54.7734C139.398 54.7734 140.148 54.5938 140.758 54.2344C141.367 53.8594 141.859 53.3438 142.234 52.6875C142.609 52.0312 142.875 51.2656 143.031 50.3906C143.203 49.5156 143.289 48.5781 143.289 47.5781V47.0859C143.289 46.1016 143.203 45.1797 143.031 44.3203C142.875 43.4453 142.609 42.6719 142.234 42C141.859 41.3281 141.359 40.8047 140.734 40.4297C140.125 40.0547 139.367 39.8672 138.461 39.8672C137.586 39.8672 136.844 40.0547 136.234 40.4297C135.625 40.8047 135.133 41.3281 134.758 42C134.383 42.6719 134.109 43.4453 133.938 44.3203C133.781 45.1797 133.703 46.1016 133.703 47.0859ZM170.453 34.6406H177.109V59.0859C177.109 61.4141 176.578 63.3906 175.516 65.0156C174.469 66.6406 173.008 67.875 171.133 68.7188C169.258 69.5625 167.062 69.9844 164.547 69.9844C163.453 69.9844 162.312 69.8359 161.125 69.5391C159.938 69.2578 158.82 68.8281 157.773 68.25C156.727 67.6875 155.852 66.9688 155.148 66.0938L158.266 61.7812C158.984 62.5938 159.844 63.25 160.844 63.75C161.844 64.2656 162.984 64.5234 164.266 64.5234C165.438 64.5234 166.43 64.3125 167.242 63.8906C168.055 63.4688 168.672 62.8516 169.094 62.0391C169.531 61.2266 169.75 60.2422 169.75 59.0859V40.5703L170.453 34.6406ZM153.508 47.625V47.1328C153.508 45.2109 153.742 43.4609 154.211 41.8828C154.68 40.2891 155.359 38.9219 156.25 37.7812C157.156 36.625 158.242 35.7344 159.508 35.1094C160.789 34.4844 162.227 34.1719 163.82 34.1719C165.539 34.1719 166.961 34.5 168.086 35.1562C169.211 35.7969 170.125 36.7031 170.828 37.875C171.531 39.0312 172.086 40.3984 172.492 41.9766C172.898 43.5391 173.227 45.2344 173.477 47.0625V47.9062C173.227 49.6562 172.867 51.2891 172.398 52.8047C171.93 54.3203 171.32 55.6562 170.57 56.8125C169.82 57.9531 168.883 58.8516 167.758 59.5078C166.648 60.1484 165.32 60.4688 163.773 60.4688C162.195 60.4688 160.773 60.1484 159.508 59.5078C158.242 58.8672 157.156 57.9688 156.25 56.8125C155.359 55.6562 154.68 54.2969 154.211 52.7344C153.742 51.1719 153.508 49.4688 153.508 47.625ZM160.82 47.1328V47.625C160.82 48.625 160.914 49.5547 161.102 50.4141C161.305 51.2734 161.602 52.0312 161.992 52.6875C162.398 53.3438 162.898 53.8594 163.492 54.2344C164.102 54.5938 164.812 54.7734 165.625 54.7734C166.812 54.7734 167.773 54.5234 168.508 54.0234C169.258 53.5078 169.805 52.7969 170.148 51.8906C170.508 50.9844 170.695 49.9297 170.711 48.7266V46.2656C170.711 45.2656 170.609 44.3672 170.406 43.5703C170.203 42.7734 169.898 42.1016 169.492 41.5547C169.102 41.0078 168.586 40.5938 167.945 40.3125C167.32 40.0156 166.562 39.8672 165.672 39.8672C164.875 39.8672 164.172 40.0547 163.562 40.4297C162.953 40.7891 162.445 41.2969 162.039 41.9531C161.633 42.6094 161.328 43.3828 161.125 44.2734C160.922 45.1484 160.82 46.1016 160.82 47.1328ZM189.156 40.0547V60H181.82V34.6406H188.711L189.156 40.0547ZM188.195 46.4297L186.367 46.4766C186.367 44.5703 186.602 42.8594 187.07 41.3438C187.539 39.8281 188.203 38.5391 189.062 37.4766C189.938 36.3984 190.977 35.5781 192.18 35.0156C193.398 34.4531 194.742 34.1719 196.211 34.1719C197.398 34.1719 198.484 34.3438 199.469 34.6875C200.453 35.0312 201.297 35.5859 202 36.3516C202.719 37.1016 203.266 38.1016 203.641 39.3516C204.016 40.5859 204.203 42.1094 204.203 43.9219V60H196.844V43.8984C196.844 42.8359 196.695 42.0156 196.398 41.4375C196.102 40.8594 195.664 40.4531 195.086 40.2188C194.523 39.9844 193.836 39.8672 193.023 39.8672C192.164 39.8672 191.43 40.0391 190.82 40.3828C190.211 40.7109 189.711 41.1719 189.32 41.7656C188.93 42.3594 188.641 43.0547 188.453 43.8516C188.281 44.6484 188.195 45.5078 188.195 46.4297ZM220.938 60.4688C218.922 60.4688 217.117 60.1484 215.523 59.5078C213.93 58.8672 212.578 57.9844 211.469 56.8594C210.375 55.7188 209.539 54.4062 208.961 52.9219C208.383 51.4375 208.094 49.8516 208.094 48.1641V47.2734C208.094 45.3828 208.359 43.6406 208.891 42.0469C209.422 40.4531 210.195 39.0703 211.211 37.8984C212.242 36.7109 213.508 35.7969 215.008 35.1562C216.508 34.5 218.219 34.1719 220.141 34.1719C221.938 34.1719 223.539 34.4688 224.945 35.0625C226.352 35.6406 227.539 36.4766 228.508 37.5703C229.477 38.6484 230.211 39.9531 230.711 41.4844C231.227 43 231.484 44.7031 231.484 46.5938V49.5938H211.047V44.8828H224.312V44.3203C224.312 43.4297 224.148 42.6484 223.82 41.9766C223.508 41.3047 223.039 40.7891 222.414 40.4297C221.805 40.0547 221.031 39.8672 220.094 39.8672C219.203 39.8672 218.461 40.0547 217.867 40.4297C217.273 40.8047 216.797 41.3359 216.438 42.0234C216.094 42.6953 215.844 43.4844 215.688 44.3906C215.531 45.2812 215.453 46.2422 215.453 47.2734V48.1641C215.453 49.1484 215.586 50.0469 215.852 50.8594C216.117 51.6719 216.508 52.3672 217.023 52.9453C217.539 53.5234 218.164 53.9766 218.898 54.3047C219.633 54.6328 220.469 54.7969 221.406 54.7969C222.562 54.7969 223.664 54.5781 224.711 54.1406C225.758 53.6875 226.664 52.9844 227.43 52.0312L230.852 55.9453C230.336 56.6953 229.609 57.4219 228.672 58.125C227.75 58.8125 226.641 59.375 225.344 59.8125C224.047 60.25 222.578 60.4688 220.938 60.4688ZM245.641 54.7734C246.422 54.7734 247.102 54.625 247.68 54.3281C248.258 54.0312 248.703 53.6172 249.016 53.0859C249.344 52.5391 249.508 51.8828 249.508 51.1172H256.398C256.398 52.9609 255.922 54.5859 254.969 55.9922C254.031 57.3984 252.766 58.5 251.172 59.2969C249.578 60.0781 247.781 60.4688 245.781 60.4688C243.812 60.4688 242.094 60.1484 240.625 59.5078C239.156 58.8516 237.93 57.9375 236.945 56.7656C235.961 55.5938 235.219 54.2344 234.719 52.6875C234.234 51.125 233.992 49.4375 233.992 47.625V47.0156C233.992 45.2188 234.234 43.5391 234.719 41.9766C235.219 40.4141 235.961 39.0469 236.945 37.875C237.93 36.7031 239.148 35.7969 240.602 35.1562C242.07 34.5 243.789 34.1719 245.758 34.1719C247.836 34.1719 249.672 34.5703 251.266 35.3672C252.875 36.1641 254.133 37.3125 255.039 38.8125C255.945 40.2969 256.398 42.0859 256.398 44.1797H249.508C249.508 43.3672 249.359 42.6406 249.062 42C248.781 41.3438 248.344 40.8281 247.75 40.4531C247.172 40.0625 246.453 39.8672 245.594 39.8672C244.703 39.8672 243.969 40.0625 243.391 40.4531C242.828 40.8281 242.398 41.3516 242.102 42.0234C241.805 42.6953 241.602 43.4609 241.492 44.3203C241.383 45.1641 241.328 46.0625 241.328 47.0156V47.625C241.328 48.5938 241.383 49.5156 241.492 50.3906C241.602 51.25 241.805 52.0078 242.102 52.6641C242.414 53.3203 242.852 53.8359 243.414 54.2109C243.977 54.5859 244.719 54.7734 245.641 54.7734ZM272.922 34.6406V39.7734H257.875V34.6406H272.922ZM261.32 28.3594H268.656V52.0547C268.656 52.7578 268.742 53.2969 268.914 53.6719C269.086 54.0469 269.367 54.3125 269.758 54.4688C270.148 54.6094 270.648 54.6797 271.258 54.6797C271.695 54.6797 272.07 54.6641 272.383 54.6328C272.695 54.6016 272.984 54.5625 273.25 54.5156V59.8125C272.625 60.0156 271.961 60.1719 271.258 60.2812C270.555 60.4062 269.789 60.4688 268.961 60.4688C267.383 60.4688 266.016 60.2109 264.859 59.6953C263.719 59.1797 262.844 58.3672 262.234 57.2578C261.625 56.1328 261.32 54.6719 261.32 52.875V28.3594ZM274.727 47.5781V47.0859C274.727 45.2266 274.992 43.5156 275.523 41.9531C276.055 40.375 276.836 39.0078 277.867 37.8516C278.898 36.6953 280.164 35.7969 281.664 35.1562C283.164 34.5 284.883 34.1719 286.82 34.1719C288.789 34.1719 290.523 34.5 292.023 35.1562C293.539 35.7969 294.812 36.6953 295.844 37.8516C296.875 39.0078 297.656 40.375 298.188 41.9531C298.719 43.5156 298.984 45.2266 298.984 47.0859V47.5781C298.984 49.4219 298.719 51.1328 298.188 52.7109C297.656 54.2734 296.875 55.6406 295.844 56.8125C294.812 57.9688 293.547 58.8672 292.047 59.5078C290.547 60.1484 288.82 60.4688 286.867 60.4688C284.93 60.4688 283.203 60.1484 281.688 59.5078C280.172 58.8672 278.898 57.9688 277.867 56.8125C276.836 55.6406 276.055 54.2734 275.523 52.7109C274.992 51.1328 274.727 49.4219 274.727 47.5781ZM282.062 47.0859V47.5781C282.062 48.5781 282.141 49.5156 282.297 50.3906C282.469 51.2656 282.742 52.0312 283.117 52.6875C283.492 53.3438 283.984 53.8594 284.594 54.2344C285.219 54.5938 285.977 54.7734 286.867 54.7734C287.758 54.7734 288.508 54.5938 289.117 54.2344C289.727 53.8594 290.219 53.3438 290.594 52.6875C290.969 52.0312 291.234 51.2656 291.391 50.3906C291.562 49.5156 291.648 48.5781 291.648 47.5781V47.0859C291.648 46.1016 291.562 45.1797 291.391 44.3203C291.234 43.4453 290.969 42.6719 290.594 42C290.219 41.3281 289.719 40.8047 289.094 40.4297C288.484 40.0547 287.727 39.8672 286.82 39.8672C285.945 39.8672 285.203 40.0547 284.594 40.4297C283.984 40.8047 283.492 41.3281 283.117 42C282.742 42.6719 282.469 43.4453 282.297 44.3203C282.141 45.1797 282.062 46.1016 282.062 47.0859Z" fill="white"/>
</svg>
